<?xml version="1.0" standalone="no"?>
<!DOCTYPE svg PUBLIC "-//W3C//DTD SVG 20010904//EN"
 "http://www.w3.org/TR/2001/REC-SVG-20010904/DTD/svg10.dtd">
<svg version="1.0" xmlns="http://www.w3.org/2000/svg"
 width="1080.000000pt" height="1080.000000pt" viewBox="0 0 1080.000000 1080.000000"
 preserveAspectRatio="xMidYMid meet">

<g transform="translate(0.000000,1080.000000) scale(0.100000,-0.100000)"
fill="#000000" stroke="none">
<path d="M5100 9549 c-673 -70 -1330 -391 -1794 -880 -101 -106 -229 -263
-290 -356 l-41 -63 -51 0 c-141 0 -288 -93 -357 -225 -22 -43 -30 -155 -14
-205 7 -23 4 -28 -31 -48 -28 -15 -56 -22 -96 -22 -318 0 -657 -256 -833 -626
-33 -71 -59 -152 -104 -334 -128 -515 -249 -829 -419 -1087 -111 -169 -280
-324 -413 -379 -26 -10 -47 -22 -47 -26 0 -12 90 -75 160 -112 150 -79 320
-112 529 -103 270 12 507 96 716 255 114 87 191 179 283 339 40 71 101 167
135 214 62 87 126 164 130 158 1 -2 14 -51 28 -109 l26 -105 -47 -52 c-145
-159 -234 -364 -261 -603 -41 -358 117 -835 409 -1240 42 -58 91 -126 109
-151 l33 -47 -11 -94 c-12 -93 -11 -94 16 -148 88 -173 241 -385 371 -511 85
-83 203 -169 230 -169 7 0 39 33 71 72 97 124 184 217 271 290 l83 71 53 -6
c65 -7 107 -27 132 -64 15 -23 18 -49 20 -148 1 -138 16 -204 71 -314 72 -143
213 -252 346 -267 65 -8 68 -2 43 71 -14 40 -31 205 -21 205 3 0 20 -16 37
-35 74 -85 186 -114 304 -80 47 13 69 27 108 67 44 46 50 49 59 32 28 -49 93
-84 158 -84 51 0 133 32 166 65 l33 33 33 -33 c33 -33 115 -65 165 -65 50 0
103 24 137 62 l35 38 41 -45 c51 -56 125 -85 212 -85 77 0 149 32 201 91 20
21 39 39 42 39 11 0 -5 -145 -21 -197 -26 -83 -24 -87 43 -79 138 15 278 126
351 278 50 104 76 226 68 321 -11 125 35 184 151 194 l57 4 81 -73 c93 -84
184 -181 267 -285 32 -40 64 -73 71 -73 20 0 125 71 186 125 132 117 295 332
401 529 l42 79 -11 96 -11 96 51 70 c128 174 171 238 236 353 206 359 302 742
261 1039 -31 231 -115 418 -257 574 l-49 54 26 107 c14 59 28 108 31 107 10
-1 107 -125 157 -199 28 -41 78 -124 113 -185 124 -220 267 -354 493 -460 344
-163 759 -166 1046 -9 70 39 141 91 141 103 0 5 -21 16 -46 26 -128 49 -297
203 -412 376 -171 256 -301 598 -430 1124 -27 111 -62 230 -78 265 -170 386
-523 660 -849 660 -65 0 -139 34 -129 60 3 8 9 45 11 81 5 57 2 75 -20 122
-62 137 -214 237 -358 237 l-47 0 -79 108 c-282 388 -632 685 -1053 896 -326
163 -662 260 -1019 296 -121 12 -459 11 -581 -1z m580 -424 c478 -56 906 -234
1275 -532 262 -211 580 -601 586 -719 2 -35 -10 -62 -101 -215 -127 -214 -296
-489 -488 -798 l-146 -234 -23 88 c-48 180 -134 326 -269 455 -170 162 -374
263 -674 334 -234 56 -444 69 -654 41 -563 -75 -942 -302 -1111 -668 -19 -40
-44 -111 -56 -158 -12 -46 -23 -85 -24 -87 -4 -4 -349 553 -560 905 -181 301
-182 303 -175 348 19 123 336 507 585 708 362 292 797 475 1265 532 146 18
421 18 570 0z m-2742 -1039 c35 -18 85 -72 106 -113 18 -36 21 -108 6 -147
-15 -40 -76 -101 -122 -122 l-42 -19 49 -12 50 -11 -53 -1 -54 -1 29 -37 c17
-21 33 -45 37 -53 4 -8 -3 -1 -15 15 -31 41 -136 144 -182 178 -68 51 -94 137
-63 210 40 95 174 155 254 113z m5081 -12 c131 -66 149 -224 34 -311 -71 -54
-143 -126 -174 -174 -17 -27 -33 -49 -36 -49 -6 0 19 41 54 88 l24 32 -48 1
-48 1 42 11 43 10 -52 31 c-78 47 -111 94 -116 164 -3 45 1 68 16 98 21 40 71
92 107 112 35 20 98 14 154 -14z m-4857 -365 c11 -6 39 -53 63 -104 42 -90 43
-96 35 -154 -4 -33 -14 -68 -20 -78 -11 -17 -11 -17 -6 1 9 28 -99 219 -162
288 -14 15 -24 29 -21 31 33 25 81 32 111 16z m4561 -4 l35 -14 -37 -39 c-20
-21 -65 -89 -100 -151 -70 -123 -79 -126 -80 -24 -1 39 8 70 38 136 50 109 72
122 144 92z m-4696 -31 c-3 -3 -12 -4 -19 -1 -8 3 -5 6 6 6 11 1 17 -2 13 -5z
m4770 0 c-3 -3 -12 -4 -19 -1 -8 3 -5 6 6 6 11 1 17 -2 13 -5z m156 -171 c-25
-32 -62 -82 -80 -110 -19 -29 -36 -53 -38 -53 -8 0 43 79 92 143 36 46 41 57
26 58 -10 1 -4 5 12 9 17 4 31 8 33 9 1 0 -19 -25 -45 -56z m-5105 40 c-15 -4
-9 -15 32 -69 49 -64 75 -104 67 -104 -3 0 -17 19 -32 43 -15 23 -46 63 -67
90 l-40 47 29 -1 c16 -1 21 -3 11 -6z m120 -18 c-3 -3 -9 2 -12 12 -6 14 -5
15 5 6 7 -7 10 -15 7 -18z m-448 -40 c70 -36 79 -110 28 -209 -25 -46 -76
-104 -203 -231 -197 -197 -281 -303 -364 -464 -69 -136 -107 -238 -161 -443
-22 -82 -56 -183 -75 -225 -104 -225 -289 -417 -464 -480 -65 -24 -92 -25 -49
-2 49 26 91 67 147 140 155 204 286 609 356 1104 14 99 35 212 46 250 68 229
245 418 472 506 70 27 204 67 230 68 4 1 21 -6 37 -14z m5935 -22 c174 -54
279 -118 390 -234 119 -125 181 -269 210 -486 68 -504 189 -910 343 -1142 43
-65 122 -145 163 -167 49 -25 27 -27 -37 -3 -186 69 -375 268 -475 499 -21 49
-52 142 -68 208 -64 253 -153 457 -274 629 -38 54 -132 158 -243 268 -145 146
-187 193 -212 245 -51 102 -40 175 32 205 35 15 59 12 171 -22z m-5239 -151
c-9 -17 -20 -33 -25 -36 -5 -4 0 12 12 33 25 46 36 48 13 3z m2371 18 c137
-23 269 -59 368 -101 63 -26 74 -35 102 -82 100 -166 53 -350 -122 -484 -75
-57 -175 -104 -285 -134 -73 -20 -109 -23 -250 -23 -141 0 -177 3 -250 23
-110 30 -210 77 -285 134 -71 54 -108 99 -141 172 -49 106 -42 211 19 312 28
47 39 56 102 82 153 64 402 119 547 120 42 1 129 -8 195 -19z m2011 -22 c12
-21 19 -38 17 -38 -7 0 -45 63 -45 74 0 12 1 10 28 -36z m-3843 -716 c49 -90
95 -164 100 -163 6 0 12 17 15 38 7 50 15 34 30 -57 9 -58 17 -80 35 -95 23
-19 24 -22 13 -95 -6 -41 -13 -78 -17 -82 -3 -4 -40 50 -81 120 -135 228 -210
332 -240 332 -3 0 -25 -29 -48 -65 l-43 -64 24 -38 c36 -58 39 -63 33 -63 -2
0 -19 23 -36 51 l-31 52 30 43 c43 59 91 175 98 236 5 42 8 47 17 32 6 -11 51
-93 101 -182z m3435 50 c11 -24 20 -46 20 -47 0 -2 -11 -6 -25 -9 -33 -8 -91
-88 -212 -291 -54 -90 -100 -161 -103 -159 -3 3 -10 40 -17 82 -12 75 -11 77
12 97 17 15 26 38 35 90 16 94 22 108 29 62 3 -21 10 -38 16 -39 5 0 55 81
110 181 l100 182 8 -52 c4 -28 16 -72 27 -97z m91 -195 c-9 -9 -11 -9 -7 3 4
8 -9 37 -29 64 -19 27 -35 54 -35 59 0 5 19 -19 41 -53 32 -47 39 -64 30 -73z
m-33 -55 c-34 -57 -63 -94 -37 -47 32 57 51 85 56 85 2 0 -6 -17 -19 -38z
m-3652 -378 l201 -329 -31 -50 c-16 -27 -61 -80 -99 -117 -75 -73 -109 -86
-193 -73 -52 7 -65 26 -95 142 -36 144 -23 303 43 490 37 105 33 119 -29 115
-63 -5 -222 -42 -311 -74 -46 -16 -86 -27 -88 -25 -8 8 -38 176 -32 182 3 3
70 10 149 14 134 8 228 28 254 52 5 5 14 8 20 6 5 -2 100 -152 211 -333z m30
274 c21 -35 44 -73 52 -85 8 -13 12 -23 9 -23 -3 0 -22 28 -43 63 -21 34 -44
72 -52 85 -8 12 -12 22 -9 22 3 0 22 -28 43 -62z m3826 46 c55 -29 90 -35 237
-44 79 -5 146 -12 149 -15 6 -6 -24 -174 -32 -182 -2 -2 -42 9 -88 25 -89 32
-248 69 -311 74 -63 4 -66 -9 -24 -130 20 -59 42 -138 48 -176 16 -94 6 -255
-20 -336 -32 -101 -37 -105 -123 -105 l-75 0 -61 53 c-68 60 -146 167 -139
193 3 10 83 145 178 301 223 366 218 358 225 358 3 0 19 -7 36 -16z m-274 -56
c-8 -13 -31 -51 -52 -85 -21 -35 -40 -63 -43 -63 -3 0 1 10 9 23 8 12 31 50
52 85 21 34 40 62 43 62 3 0 -1 -10 -9 -22z m-3442 -170 c21 -35 44 -73 52
-85 8 -13 12 -23 9 -23 -3 0 -22 28 -43 63 -21 34 -44 72 -52 85 -8 12 -12 22
-9 22 3 0 22 -28 43 -62z m3332 -10 c-8 -13 -31 -51 -52 -85 -21 -35 -40 -63
-43 -63 -3 0 1 10 9 23 8 12 31 50 52 85 21 34 40 62 43 62 3 0 -1 -10 -9 -22z
m-3151 -20 c-3 -7 -5 -2 -5 12 0 14 2 19 5 13 2 -7 2 -19 0 -25z m2970 0 c-3
-7 -5 -2 -5 12 0 14 2 19 5 13 2 -7 2 -19 0 -25z m-1058 -22 c108 -19 181 -47
181 -71 0 -26 -23 -27 -105 -6 -153 40 -289 55 -505 55 -216 0 -352 -15 -505
-55 -82 -21 -105 -20 -105 6 0 25 76 53 186 70 151 23 159 23 469 20 213 -2
315 -7 384 -19z m1068 -28 c-3 -7 -5 -2 -5 12 0 14 2 19 5 13 2 -7 2 -19 0
-25z m-2990 0 c-3 -8 -6 -5 -6 6 -1 11 2 17 5 13 3 -3 4 -12 1 -19z m-10 -40
c-3 -8 -6 -5 -6 6 -1 11 2 17 5 13 3 -3 4 -12 1 -19z m3010 0 c-3 -8 -6 -5 -6
6 -1 11 2 17 5 13 3 -3 4 -12 1 -19z m-3071 -45 c24 -39 29 -43 35 -27 4 10 8
14 8 7 1 -6 -2 -19 -5 -28 -6 -14 -8 -14 -18 2 -30 45 -57 93 -52 93 3 0 17
-21 32 -47z m51 5 c-3 -8 -6 -5 -6 6 -1 11 2 17 5 13 3 -3 4 -12 1 -19z m3030
0 c-3 -8 -6 -5 -6 6 -1 11 2 17 5 13 3 -3 4 -12 1 -19z m37 -38 c-18 -30 -34
-25 -33 10 0 10 3 8 8 -5 8 -19 8 -19 20 3 6 12 14 22 17 22 3 0 -3 -13 -12
-30z m-3795 11 c10 -7 12 -22 6 -66 -7 -57 -8 -59 -101 -148 -90 -85 -174
-196 -223 -294 -36 -72 -72 -192 -81 -272 -22 -189 46 -486 171 -745 16 -33
27 -61 25 -63 -4 -4 -78 82 -133 157 -96 128 -171 310 -194 469 -32 223 37
492 175 685 60 85 190 206 267 249 71 41 69 40 88 28z m4549 -15 c146 -74 289
-233 376 -417 71 -151 90 -238 90 -409 -1 -196 -35 -320 -135 -495 -40 -71
-187 -261 -195 -253 -2 2 12 35 30 73 115 240 187 543 170 709 -21 215 -129
422 -307 593 -93 89 -94 90 -102 148 -5 44 -4 60 7 66 17 11 12 12 66 -15z
m-2003 -691 c434 -25 853 -98 1093 -193 139 -54 223 -104 299 -176 l65 -61
-11 -59 c-16 -85 -14 -320 3 -409 52 -269 193 -464 437 -606 70 -40 84 -52 81
-71 -4 -34 -113 -258 -167 -341 -60 -93 -114 -159 -129 -159 -7 0 -57 44 -112
98 -111 107 -223 181 -358 233 -157 60 -329 93 -466 87 -72 -3 -75 -4 -75 -28
0 -22 7 -26 86 -46 83 -22 205 -67 222 -84 5 -4 -17 -2 -50 6 -32 8 -93 14
-136 14 -64 0 -79 -3 -84 -17 -5 -12 4 -24 28 -42 59 -45 130 -114 144 -142
19 -36 4 -47 -55 -41 -62 6 -64 -5 -15 -78 107 -159 76 -369 -69 -467 -80 -55
-83 -52 -78 81 5 125 -13 243 -51 330 l-21 49 27 19 c60 44 -11 65 -90 27
l-42 -20 6 -92 c9 -147 -38 -272 -115 -304 -44 -18 -111 -12 -156 16 -94 58
-113 236 -36 325 17 18 30 36 30 40 0 14 -50 4 -80 -16 l-34 -23 -54 28 c-52
25 -112 36 -112 20 0 -5 14 -27 30 -51 62 -92 61 -224 -3 -278 -28 -23 -37
-26 -95 -22 -57 4 -68 8 -92 34 -55 63 -64 214 -14 273 13 16 24 31 24 34 0 3
-36 5 -80 5 -44 0 -80 -3 -80 -7 0 -4 9 -16 20 -26 68 -62 39 -276 -42 -304
-45 -16 -120 -13 -146 5 -70 49 -76 185 -12 284 17 26 30 50 30 53 0 16 -62 5
-112 -20 l-54 -28 -34 23 c-30 20 -80 30 -80 16 0 -4 13 -21 29 -40 70 -79 67
-224 -5 -298 -55 -57 -150 -71 -209 -32 -13 9 -38 45 -56 82 -29 59 -33 76
-34 153 0 47 2 100 5 116 5 27 1 32 -40 53 -79 40 -154 19 -93 -26 l27 -19
-21 -49 c-36 -82 -56 -216 -51 -336 5 -125 2 -128 -76 -77 -90 60 -144 179
-132 290 7 70 35 148 70 194 41 54 36 68 -24 63 -59 -6 -74 5 -55 41 14 28 85
97 144 142 24 18 33 30 28 42 -5 14 -20 17 -84 17 -43 0 -104 -6 -136 -14 -33
-8 -55 -10 -50 -6 15 16 160 70 229 86 83 19 98 29 83 55 -8 16 -21 19 -89 19
-309 0 -603 -116 -814 -322 -55 -54 -105 -98 -111 -98 -25 0 -143 166 -205
290 -51 102 -101 221 -95 230 3 5 38 26 78 49 240 131 391 337 441 599 9 45
16 142 17 215 1 119 -2 164 -17 235 -10 52 149 178 311 246 386 161 1100 247
1750 211z"/>
<path d="M4838 4863 c-3 -4 -5 -46 -6 -93 -2 -139 -47 -283 -116 -373 -20 -26
-36 -49 -36 -52 0 -3 23 -5 50 -5 59 0 99 18 129 57 20 27 20 28 21 5 1 -59
-52 -111 -163 -162 -167 -76 -262 -10 -367 255 -93 233 -174 305 -345 305 -91
0 -92 -1 -87 -68 7 -96 -44 -246 -117 -342 -25 -33 -26 -40 -26 -160 0 -116 2
-129 28 -185 34 -73 69 -111 122 -136 38 -18 85 -25 85 -14 0 3 -9 16 -21 28
-56 60 -100 178 -98 267 l1 45 9 -38 c15 -62 58 -137 112 -195 87 -91 262
-196 421 -252 28 -10 58 -21 67 -24 12 -5 23 6 44 49 15 31 53 89 85 128 64
81 280 293 352 347 45 33 47 37 48 85 0 53 -31 212 -73 379 -18 67 -33 106
-49 122 -25 24 -64 39 -70 27z"/>
<path d="M5925 4861 c-37 -15 -54 -46 -80 -141 -33 -126 -75 -341 -75 -389 0
-36 5 -43 83 -108 192 -163 361 -352 407 -456 12 -26 23 -47 25 -47 2 0 44 15
93 34 286 109 472 263 516 426 l15 55 0 -51 c1 -73 -32 -170 -79 -237 -39 -54
-40 -57 -18 -57 40 1 103 36 140 79 53 62 78 149 78 273 0 99 -1 102 -36 155
-78 117 -121 253 -111 344 7 56 3 59 -88 59 -168 0 -258 -78 -339 -292 -76
-203 -160 -298 -263 -298 -71 1 -213 73 -248 126 -8 13 -18 39 -21 57 l-5 32
21 -28 c32 -40 72 -57 135 -57 52 0 72 11 41 23 -23 9 -75 92 -101 161 -29 78
-45 167 -48 265 -2 76 -7 86 -42 72z"/>
<path d="M5333 4375 c-232 -100 -433 -387 -450 -641 -12 -181 85 -297 261
-311 62 -5 176 19 176 37 0 4 -28 10 -63 13 -60 6 -171 40 -181 56 -3 4 22 2
55 -5 37 -8 142 -12 269 -12 127 0 232 4 269 12 33 7 58 9 55 5 -10 -16 -121
-50 -181 -56 -35 -3 -63 -9 -63 -13 0 -18 114 -42 176 -37 254 20 336 252 195
553 -67 143 -152 248 -267 330 -113 81 -181 100 -251 69z"/>
</g>
</svg>
